{"title":"[Vostfr Proper] Ripper Street 1x02 vostfr.mp4 [TeKeSTe]","uid":8138858,"size":454445990,"categoryP":"video","categoryS":"tv_shows","magnet":"?xt=urn:btih:3fdbda1200b6f62961c4c212529aa93ba75c9a39&amp;dn=%5BVostfr+Proper%5D+Ripper+Street+1x02+vostfr.mp4+%5BTeKeSTe%5D&amp;tr=udp%3A%2F%2Ftracker.openbittorrent.com%3A80&amp;tr=udp%3A%2F%2Fopen.demonii.com%3A1337&amp;tr=udp%3A%2F%2Ftracker.coppersurfer.tk%3A6969&amp;tr=udp%3A%2F%2Fexodus.desync.com%3A6969","seeders":0,"leechers":0,"uploader":"TeKeSTe","files":1,"time":1360769302,"description":"Ripper Street 1x02 vostfr.mp4\nFormat                           : MPEG-4\nFormat profile                   : Base Media\nCodec ID                         : isom\nFile size                        : 433 MiB\nDuration                         : 59mn 3s\nOverall bit rate                 : 1 026 Kbps\nEncoded date                     : UTC 2013-02-13 14:22:19\nTagged date                      : UTC 2013-02-13 14:22:19\n\nVideo\nID                               : 1\nFormat                           : AVC\nFormat/Info                      : Advanced Video Codec\nFormat profile                   : &lt;a class=&quot;__cf_email__&quot; href=&quot;/cdn-cgi/l/email-protection&quot; data-cfemail=&quot;672f0e000f272b544956&quot;&gt;[email&amp;#160;protected]&lt;/a&gt;&lt;script cf-hash='f9e31' type=&quot;text/javascript&quot;&gt;\n/* &lt;![CDATA[ */!function(){try{var t=&quot;currentScript&quot;in document?document.currentScript:function(){for(var t=document.getElementsByTagName(&quot;script&quot;),e=t.length;e--;)if(t[e].getAttribute(&quot;cf-hash&quot;))return t[e]}();if(t&amp;&amp;t.previousSibling){var e,r,n,i,c=t.previousSibling,a=c.getAttribute(&quot;data-cfemail&quot;);if(a){for(e=&quot;&quot;,r=parseInt(a.substr(0,2),16),n=2;a.length-n;n+=2)i=parseInt(a.substr(n,2),16)^r,e+=String.fromCharCode(i);e=document.createTextNode(e),c.parentNode.replaceChild(e,c)}}}catch(u){}}();/* ]]&gt; */&lt;/script&gt;\nFormat settings, CABAC           : Yes\nFormat settings, ReFrames        : 5 frames\nFormat settings, GOP             : M=4, N=16\nCodec ID                         : avc1\nCodec ID/Info                    : Advanced Video Coding\nDuration                         : 59mn 3s\nBit rate mode                    : Variable\nBit rate                         : 894 Kbps\nMaximum bit rate                 : 17.5 Mbps\nWidth                            : 852 pixels\nHeight                           : 480 pixels\nDisplay aspect ratio             : 16:9\nFrame rate mode                  : Constant\nFrame rate                       : 25.000 fps\nColor space                      : YUV\nChroma subsampling               : 4:2:0\nBit depth                        : 8 bits\nScan type                        : Progressive\nBits/(Pixel*Frame)               : 0.087\nStream size                      : 378 MiB (87%)\nTitle                            : Ripper Street 1x02 vostfr\nWriting library                  : x264 core 125 r2208 d9d2288\nEncoding settings                : cabac=1 / ref=5 / deblock=1:0:0 / analyse=0x3:0x113 / me=umh / subme=8 / psy=1 / psy_rd=1.00:0.00 / mixed_ref=1 / me_range=16 / chroma_me=1 / trellis=1 / 8x8dct=1 / cqm=0 / deadzone=21,11 / fast_pskip=1 / chroma_qp_offset=-2 / threads=12 / lookahead_threads=2 / sliced_threads=0 / nr=0 / decimate=1 / interlaced=0 / bluray_compat=0 / constrained_intra=0 / bframes=3 / b_pyramid=2 / b_adapt=2 / b_bias=0 / direct=3 / weightb=1 / open_gop=0 / weightp=2 / keyint=250 / keyint_min=25 / scenecut=40 / intra_refresh=0 / rc_lookahead=50 / rc=crf / mbtree=1 / crf=19.0 / qcomp=0.60 / qpmin=0 / qpmax=69 / qpstep=4 / vbv_maxrate=17500 / vbv_bufsize=17500 / crf_max=0.0 / nal_hrd=vbr / ip_ratio=1.40 / aq=1:1.00\nEncoded date                     : UTC 2013-02-13 14:22:19\nTagged date                      : UTC 2013-02-13 14:22:36\nMatrix coefficients              : BT.709-5, BT.1361, IEC 61966-2-4 709, SMPTE RP177\n\nAudio\nID                               : 2\nFormat                           : AAC\nFormat/Info                      : Advanced Audio Codec\nFormat version                   : Version 4\nFormat profile                   : LC\nCodec ID                         : 40\nDuration                         : 59mn 3s\nBit rate mode                    : Variable\nBit rate                         : 128 Kbps\nMaximum bit rate                 : 133 Kbps\nChannel(s)                       : 2 channels\nChannel positions                : Front: L R\nSampling rate                    : 48.0 KHz\nCompression mode                 : Lossy\nStream size                      : 54.1 MiB (12%)\nLanguage                         : English\nEncoded date                     : UTC 2013-02-13 14:22:32\nTagged date                      : UTC 2013-02-13 14:22:36\n\n","torrent":{"xt":"urn:btih:3fdbda1200b6f62961c4c212529aa93ba75c9a39","amp;dn":"%5BVostfr+Proper%5D+Ripper+Street+1x02+vostfr.mp4+%5BTeKeSTe%5D","amp;tr":["udp%3A%2F%2Ftracker.openbittorrent.com%3A80","udp%3A%2F%2Fopen.demonii.com%3A1337","udp%3A%2F%2Ftracker.coppersurfer.tk%3A6969","udp%3A%2F%2Fexodus.desync.com%3A6969"],"infoHash":"3fdbda1200b6f62961c4c212529aa93ba75c9a39","infoHashBuffer":{"type":"Buffer","data":[63,219,218,18,0,182,246,41,97,196,194,18,82,154,169,59,167,92,154,57]},"announce":[],"urlList":[]}}